# AST/ASF file generated using VICON BodyLanguage
# -----------------------------------------------
:version 1.10
:name VICON
:units
  mass 1.0
  length 0.45
  angle deg
:documentation
   .ast/.asf automatically generated from VICON data using
   VICON BodyBuilder and BodyLanguage model FoxedUp or BRILLIANT.MOD
:root
   order TX TY TZ RX RY RZ
   axis XYZ
   position 0 0 0  
   orientation 0 0 0 
:bonedata
  begin
     id 1 
     name lhipjoint
     direction 0.589753 -0.68606 0.426044 
     length 2.54082 
     axis 0 0 0  XYZ
  end
  begin
     id 2 
     name lfemur
     direction 0.34202 -0.939693 0  
     length 7.04539  
     axis 0 0 20  XYZ
    dof rx ry rz
    limits (-160.0 20.0)
           (-70.0 70.0)
           (-60.0 70.0)
  end
  begin
     id 3 
     name ltibia
     direction 0.34202 -0.939693 0   
     length 7.83772   
     axis 0 0 20   XYZ
    dof rx
    limits (-10.0 170.0)
  end
  begin
     id 4 
     name lfoot
     direction 0.0596604 -0.163915 0.984669   
     length 2.39542   
     axis -90 7.62852e-016 20   XYZ
    dof rx rz
    limits (-45.0 90.0)
           (-70.0 20.0)
  end
  begin
     id 5 
     name ltoes
     direction 1.53514e-011 -4.21954e-011 1   
     length 1.2047   
     axis -90 7.62852e-016 20   XYZ
    dof rx
    limits (-90.0 20.0)
  end
  begin
     id 6 
     name rhipjoint
     direction -0.580585 -0.69168 0.429534   
     length 2.52018  
     axis 0 0 0  XYZ 
  end
  begin
     id 7 
     name rfemur
     direction -0.34202 -0.939693 0   
     length 7.0101   
     axis 0 0 -20   XYZ
    dof rx ry rz
    limits (-160.0 20.0)
           (-70.0 70.0)
           (-70.0 60.0)
  end
  begin
     id 8 
     name rtibia
     direction -0.34202 -0.939693 0   
     length 7.70628   
     axis 0 0 -20   XYZ
    dof rx
    limits (-10.0 170.0)
 end
 begin
     id 9 
     name rfoot
     direction -0.0696237 -0.19129 0.979061   
     length 2.52466  
     axis -90 -7.62852e-016 -20   XYZ
    dof rx rz
    limits (-45.0 90.0)
           (-20.0 70.0)
  end
  begin
     id 10 
     name rtoes
     direction -1.53519e-011 -4.21793e-011 1   
     length 1.266   
     axis -90 -7.62852e-016 -20   XYZ
    dof rx
    limits (-90.0 20.0)
  end
  begin
     id 11 
     name lowerback
     direction 0.00381965 0.995707 -0.0924856   
     length 2.20825   
     axis 0 0 0   XYZ
    dof rx ry rz
    limits (-20.0 45.0)
           (-30.0 30.0)
           (-30.0 30.0)
  end
  begin
     id 12 
     name upperback
     direction -0.0139043 0.999634 -0.0231929   
     length 2.21517   
     axis 0 0 0   XYZ
    dof rx ry rz
    limits (-20.0 45.0)
           (-30.0 30.0)
           (-30.0 30.0)
  end
  begin
     id 13 
     name thorax
     direction -0.0143933 0.999691 0.0202892   
     length 2.22911   
     axis 0 0 0   XYZ
    dof rx ry rz
    limits (-20.0 45.0)
           (-30.0 30.0)
           (-30.0 30.0)
  end
  begin
     id 14 
     name lowerneck
     direction -0.0251153 0.981819 0.188153   
     length 1.61782   
     axis 0 0 0   XYZ
    dof rx ry rz
    limits (-20.0 45.0)
           (-30.0 30.0)
           (-30.0 30.0)
  end
  begin
     id 15 
     name upperneck
     direction 0.0563891 0.969357 -0.239095   
     length 1.64526   
     axis 0 0 0   XYZ
    dof rx ry rz
    limits (-20.0 45.0)
           (-30.0 30.0)
           (-30.0 30.0)
  end
  begin
     id 16
     name head
     direction 0.0208328 0.99459 -0.101773  
     length 1.67436  
     axis 0 0 0   XYZ
    dof rx ry rz
    limits (-20.0 45.0)
           (-30.0 30.0)
           (-30.0 30.0)
  end
  begin
     id 17 
     name lclavicle
     direction 0.917689 0.397224 0.00772059  
     length 3.31102  
     axis 0 0 0   XYZ
    dof ry rz
    limits (-20.0 10.0)
           (0.0 20.0)
  end
  begin
     id 18 
     name lhumerus
     direction 1 -4.4896e-011 2.32308e-027   
     length 5.25537   
     axis 180 -30 -90   XYZ
    dof rx ry rz
    limits (-60.0 90.0)
           (-90.0 90.0)
           (-90.0 90.0)
  end
  begin
     id 19
     name lradius
     direction 1 -4.49005e-011 -2.04271e-027   
     length 3.38855   
     axis 180 -30 -90   XYZ
    dof rx
    limits (-10.0 170.0)
  end
  begin
     id 20
     name lwrist
     direction 1 -4.48892e-011 2.56952e-028   
     length 1.69428   
     axis -5.12785e-016 90 90   XYZ
    dof ry
    limits (-180.0 0.0)
 end
  begin
     id 21 
     name lhand
     direction 1 -4.48966e-011 5.13905e-028   
     length 0.614516   
     axis -3.27915e-016 90 90   XYZ
    dof rx rz
    limits (-90.0 90.0)
           (-45.0 45.0)
  end
  begin
     id 22 
     name lfingers
     direction 1 -4.48979e-011 1.02781e-027   
     length 0.495439   
     axis -6.5583e-016 90 90   XYZ
    dof rx
    limits (0.0 90.0)
  end
  begin
     id 23
     name lthumb
     direction 0.707107 -6.35001e-011 0.707107   
     length 0.711354   
     axis -90 45 2.85299e-015   XYZ
    dof rx rz
    limits (-45.0 45.0)
           (-45.0 45.0)
  end
  begin
     id 24 
     name rclavicle
     direction -0.938556 0.342765 -0.0403177   
     length 3.27019  
     axis 0 0 0   XYZ 
    dof ry rz
    limits (-10.0 20.0)
           (-20.0 0.0)
  end
  begin
     id 25 
     name rhumerus
     direction -1 -4.48966e-011 2.52291e-027  
     length 5.38183   
     axis 180 30 90   XYZ
    dof rx ry rz
    limits (-90.0 60.0)
           (-90.0 90.0)
           (-90.0 90.0)
  end
  begin
     id 26 
     name rradius
     direction -1 -4.4896e-011 1.5797e-027   
     length 3.16988   
     axis 180 30 90   XYZ
    dof rx
    limits (-10.0 170.0)
  end
  begin
     id 27 
     name rwrist
     direction -1 -4.48947e-011 2.56952e-028   
     length 1.58494   
     axis -5.12785e-016 -90 -90   XYZ
    dof ry
    limits (-180.0 0.0)
  end
  begin
     id 28
     name rhand
     direction -1 -4.49098e-011 5.13905e-028   
     length 0.637679   
     axis -3.27915e-016 -90 -90   XYZ
    dof rx rz
    limits (-90.0 90.0)
           (-45.0 45.0)
  end
  begin
     id 29
     name rfingers
     direction -1 -4.49026e-011 1.02781e-027   
     length 0.514113   
     axis -6.5583e-016 -90 -90   XYZ
    dof rx
    limits (0.0 90.0)
  end
  begin
     id 30
     name rthumb
     direction -0.707107 -6.3491e-011 0.707107   
     length 0.738167   
     axis -90 -45 -2.85299e-015   XYZ
    dof rx rz
    limits (-45.0 45.0)
           (-45.0 45.0)
  end
:hierarchy
  begin
    root lhipjoint rhipjoint lowerback
    lhipjoint lfemur
    lfemur ltibia
    ltibia lfoot
    lfoot ltoes
    rhipjoint rfemur
    rfemur rtibia
    rtibia rfoot
    rfoot rtoes
    lowerback upperback
    upperback thorax
    thorax lowerneck lclavicle rclavicle
    lowerneck upperneck
    upperneck head
    lclavicle lhumerus
    lhumerus lradius
    lradius lwrist
    lwrist lhand lthumb
    lhand lfingers
    rclavicle rhumerus
    rhumerus rradius
    rradius rwrist
    rwrist rhand rthumb
    rhand rfingers
  end

#!OML:ASF H:\Swim\Project 1\Capture day 1\Session 1\swimmer.ASF
:FULLY-SPECIFIED
:DEGREES
252
root 7.99212 15.4447 29.8811 -177.681 -8.14402 178.458
lowerback 11.1955 -0.349413 0.828093
upperback 3.89954 -0.789124 -1.45723
thorax -2.23775 -0.540907 -1.87039
lowerneck -31.4203 4.40279 0.00100691
upperneck 19.3057 5.15103 3.17217
head 11.2815 2.75948 2.11834
rclavicle 2.54941e-014 2.18663e-015
rhumerus 38.4946 -14.6507 -60.6434
rradius 71.7892
rwrist 8.54727
rhand 43.14 -6.62866
rfingers 7.12502
rthumb 64.9414 -13.9028
lclavicle 2.54941e-014 2.18663e-015
lhumerus 35.7389 8.40261 51.3672
lradius 76.2802
lwrist -7.14389
lhand 44.6293 11.861
lfingers 7.12502
lthumb 66.1031 17.0874
rfemur -26.5717 -14.7724 5.93213
rtibia 53.4578
rfoot -19.4231 -16.8885
rtoes -11.1215
lfemur -31.5693 3.73027 -11.2292
ltibia 54.8252
lfoot -19.8285 7.42866
ltoes -11.7093
253
root 7.99066 15.4402 29.8749 -177.698 -8.14884 178.454
lowerback 11.1745 -0.345622 0.829968
upperback 3.8965 -0.782943 -1.45487
thorax -2.22919 -0.53741 -1.86997
lowerneck -31.3882 4.50055 0.108032
upperneck 19.3628 5.27237 3.05132
head 11.3018 2.80543 2.07914
rclavicle 3.97569e-016 -7.35503e-015
rhumerus 38.4431 -14.6418 -60.6074
rradius 71.7756
rwrist 8.53629
rhand 43.1363 -6.64276
rfingers 7.12502
rthumb 64.9385 -13.9217
lclavicle 3.97569e-016 -7.35503e-015
lhumerus 35.7357 8.37614 51.3588
lradius 76.2771
lwrist -7.15158
lhand 44.6291 11.851
lfingers 7.12502
lthumb 66.1029 17.0777
rfemur -26.5578 -14.7821 5.91033
rtibia 53.5184
rfoot -19.4437 -16.9007
rtoes -11.2123
lfemur -31.5646 3.73812 -11.2321
ltibia 54.8964
lfoot -19.875 7.43015
ltoes -11.7272
254
root 7.98922 15.4363 29.869 -177.713 -8.1536 178.455
lowerback 11.1527 -0.343233 0.83649
upperback 3.89503 -0.778174 -1.45103
thorax -2.21863 -0.534624 -1.87046
lowerneck -31.357 4.58615 0.197354
upperneck 19.4108 5.37968 2.94949
head 11.3183 2.84635 2.04706
rclavicle 1.55052e-014 -1.80894e-014
rhumerus 38.3955 -14.6301 -60.5718
rradius 71.7595
rwrist 8.52063
rhand 43.1304 -6.65642
rfingers 7.12502
rthumb 64.9338 -13.9432
lclavicle 1.55052e-014 -1.80894e-014
lhumerus 35.7307 8.35344 51.3486
lradius 76.2781
lwrist -7.15732
lhand 44.6262 11.8441
lfingers 7.12502
lthumb 66.1007 17.075
rfemur -26.5418 -14.7888 5.8956
rtibia 53.5713
rfoot -19.4641 -16.9153
rtoes -11.2911
lfemur -31.5577 3.74835 -11.2292
ltibia 54.96
lfoot -19.9216 7.42158
ltoes -11.7198
255
root 7.98781 15.4329 29.8632 -177.729 -8.15798 178.458
lowerback 11.1297 -0.34227 0.843526
upperback 3.89555 -0.775379 -1.44621
thorax -2.20541 -0.532866 -1.86997
lowerneck -31.3252 4.66214 0.273012
upperneck 19.4486 5.47617 2.86116
head 11.3304 2.88325 2.01989
rclavicle 2.127e-014 2.38542e-015
rhumerus 38.354 -14.6144 -60.5357
rradius 71.7415
rwrist 8.50204
rhand 43.1198 -6.66791
rfingers 7.12502
rthumb 64.9254 -13.9685
lclavicle 2.127e-014 2.38542e-015
lhumerus 35.7236 8.33739 51.3397
lradius 76.282
lwrist -7.15628
lhand 44.6248 11.8358
lfingers 7.12502
lthumb 66.0996 17.0686
rfemur -26.5232 -14.7924 5.88359
rtibia 53.6163
rfoot -19.4873 -16.9287
rtoes -11.3448
lfemur -31.5489 3.7606 -11.225
ltibia 55.0156
lfoot -19.9637 7.40984
ltoes -11.7096
256
root 7.98632 15.4301 29.8576 -177.744 -8.16236 178.462
lowerback 11.1076 -0.342355 0.852234
upperback 3.89849 -0.774032 -1.44059
thorax -2.19022 -0.531912 -1.86942
lowerneck -31.3081 4.72875 0.333555
upperneck 19.4917 5.56199 2.7884
head 11.3464 2.91625 1.99956
rclavicle 3.11595e-014 5.96354e-016
rhumerus 38.3148 -14.5954 -60.4969
rradius 71.7249
rwrist 8.47666
rhand 43.1101 -6.68219
rfingers 7.12502
rthumb 64.9177 -13.9955
lclavicle 3.11595e-014 5.96354e-016
lhumerus 35.7168 8.32797 51.336
lradius 76.2884
lwrist -7.1471
lhand 44.631 11.8324
lfingers 7.12502
lthumb 66.1043 17.0563
rfemur -26.4994 -14.7954 5.87303
rtibia 53.6526
rfoot -19.5107 -16.9402
rtoes -11.3791
lfemur -31.5363 3.77502 -11.2205
ltibia 55.0631
lfoot -20.0004 7.39661
ltoes -11.6954
